<svg width="80" height="114" viewBox="0 0 80 114" fill="none" xmlns="http://www.w3.org/2000/svg">
<path fill-rule="evenodd" clip-rule="evenodd" d="M40 0C16.3825 0 4.57091 0 1.13087 7.40001C0.835199 8.03753 0.586909 8.69581 0.387999 9.36954C-1.95489 17.2648 6.39951 26.418 23.0969 44.7188L34.2856 56.9231H45.7143L56.9031 44.7245C73.6004 26.418 81.9491 17.2648 79.6119 9.37524C79.4138 8.69754 79.1655 8.03541 78.8691 7.39431C75.429 0 63.6174 0 40 0Z" fill="#686EF4"/>
<path d="M1.13093 106.446C4.57098 113.846 16.3826 113.846 40 113.846C63.6175 113.846 75.4291 113.846 78.8691 106.446C79.165 105.809 79.4133 105.15 79.612 104.477C81.9549 96.5814 73.6005 87.4281 56.9031 69.1274L45.7143 56.9231H34.2856L23.0969 69.1217C6.39958 87.4281 -1.94911 96.5814 0.388062 104.471C0.588065 105.154 0.833783 105.809 1.13093 106.446Z" fill="#313471"/>
</svg>
