<svg width="156" height="156" viewBox="0 0 156 156" fill="none" xmlns="http://www.w3.org/2000/svg">
<path fill-rule="evenodd" clip-rule="evenodd" d="M78.0005 156C121.079 156 156.001 121.078 156.001 78C156.001 64.3067 152.472 51.4376 146.275 40.2522C149.956 48.5857 152 57.8041 152 67.5C152 104.779 121.779 135 84.5 135C47.2208 135 17 104.779 17 67.5C17 31.2706 45.5427 1.70766 81.3679 0.0713792C80.2514 0.0239533 79.1288 0 78.0005 0C34.9223 0 0.000549316 34.9218 0.000549316 78C0.000549316 121.078 34.9223 156 78.0005 156Z" fill="#F47068"/>
<path d="M100 95L78 78L78 39" stroke="#F47068" stroke-width="8" stroke-linecap="round"/>
</svg>
